<?xml version="1.0" encoding="UTF-8"?>
<!DOCTYPE svg PUBLIC "-//W3C//DTD SVG 1.1//EN" "http://www.w3.org/Graphics/SVG/1.1/DTD/svg11.dtd">
<!-- Creator: CorelDRAW Home & Student X6 -->
<svg xmlns="http://www.w3.org/2000/svg" xml:space="preserve" width="130.048mm" height="43.3492mm" version="1.1" style="shape-rendering:geometricPrecision; text-rendering:geometricPrecision; image-rendering:optimizeQuality; fill-rule:evenodd; clip-rule:evenodd"
viewBox="0 0 13005 4335"
 xmlns:xlink="http://www.w3.org/1999/xlink">
 <defs>
  <style type="text/css">
   <![CDATA[
    .fil0 {fill:#999999}
    .fil1 {fill:#B3B3B3}
    .fil2 {fill:#CCCCCC}
    .fil3 {fill:white}
   ]]>
  </style>
 </defs>
 <g id="Warstwa_x0020_1">
  <metadata id="CorelCorpID_0Corel-Layer"/>
  <path class="fil0" d="M1025 152l2284 0c491,0 890,395 890,883l0 2264c0,488 -399,883 -890,883l-2284 0c-491,0 -890,-395 -890,-883l0 -2264c0,-488 399,-883 890,-883z"/>
  <path class="fil1" d="M1254 555l1827 0c393,0 712,316 712,706l0 1812c0,390 -319,706 -712,706l-1827 0c-393,0 -712,-316 -712,-706l0 -1812c0,-390 319,-706 712,-706z"/>
  <path class="fil2" d="M5655 660l1694 0c364,0 660,296 660,660l0 1694c0,364 -296,660 -660,660l-1694 0c-364,0 -660,-296 -660,-660l0 -1694c0,-364 296,-660 660,-660z"/>
  <path class="fil3" d="M5655 305l1694 0c364,0 660,296 660,660l0 1694c0,364 -296,660 -660,660l-1694 0c-364,0 -660,-296 -660,-660l0 -1694c0,-364 296,-660 660,-660z"/>
  <path class="fil3" d="M9990 660l1694 0c364,0 660,296 660,660l0 1694c0,364 -296,660 -660,660l-1694 0c-364,0 -660,-296 -660,-660l0 -1694c0,-364 296,-660 660,-660z"/>
 </g>
</svg>
